# xmcd
#
# Track frame offsets:
# 150
# 22757
# 39857
# 50507
# 65582
# 97607
# 108475
# 117707
# 131735
# 142460
# 180470
# 186784
# 196607
# 205834
# 229680
# 240784
# 250307
# 265302
# 277015
#
# Disc length: 3830 seconds
#
#
# Revision: 3
# Processed by: cddbd v1.5.2PL0 Copyright (c) Steve Scherf et al.
# Submitted via: FreeRIP 2.70 
#
DISCID=0b0ef413
DTITLE=Andy Griffith - What it is, is Andy Griffith (Disk 2)
DYEAR=1995
DGENRE=Country
TTITLE0=Andy and Cleopatra
TTITLE1=St. James Infirmary
TTITLE2=Once Knew A Fella
TTITLE3=Standing On The Corner
TTITLE4=Hamlet
TTITLE5=Thank Heaven For Little Girls
TTITLE6=Pick A Bale Of Cotton
TTITLE7=The Discovery Of America
TTITLE8=There's No Time For Sergeants
TTITLE9=Jack The Giant Killer
TTITLE10=Cindy
TTITLE11=Love Poems: To The Lovely Juanita Beasley
TTITLE12=Don't Look Back
TTITLE13=Let's Pull Together
TTITLE14=Pool Table
TTITLE15=Sourwood Mountain
TTITLE16=A Good Man Is Hard To Find
TTITLE17=She's Bad, Bad Business
TTITLE18=The Andy Griffith Theme
EXTD=
EXTT0=
EXTT1=
EXTT2=
EXTT3=
EXTT4=
EXTT5=
EXTT6=
EXTT7=
EXTT8=
EXTT9=
EXTT10=
EXTT11=
EXTT12=
EXTT13=
EXTT14=
EXTT15=
EXTT16=
EXTT17=
EXTT18=
PLAYORDER=
